<svg width="4357" height="1510" viewBox="0 0 4357 1510" fill="none" xmlns="http://www.w3.org/2000/svg">
<ellipse cx="682" cy="794.5" rx="682" ry="628.5" fill="#FF4017"/>
<ellipse cx="682" cy="794.5" rx="567" ry="522.5" fill="white"/>
<rect x="621" y="272" width="121" height="1045" fill="#FF4017"/>
<rect x="1300.72" y="726" width="121" height="679.931" transform="rotate(88.5717 1300.72 726)" fill="#FF4017"/>
<path d="M1527.4 1246V352H1852.6C1912.6 352 1965.4 363.2 2011 385.6C2057.4 407.2 2093.4 439.2 2119 481.6C2144.6 523.2 2157.4 573.2 2157.4 631.6C2157.4 689.2 2144.2 738.8 2117.8 780.4C2092.2 822 2056.6 854 2011 876.4C1965.4 898.8 1912.6 910 1852.6 910H1669V1246H1527.4ZM1669 784H1856.2C1888.2 784 1916.2 777.6 1940.2 764.8C1964.2 752 1983 734.4 1996.6 712C2010.2 688.8 2017 661.6 2017 630.4C2017 599.2 2010.2 572.4 1996.6 550C1983 526.8 1964.2 509.2 1940.2 497.2C1916.2 484.4 1888.2 478 1856.2 478H1669V784ZM2347.58 1510C2331.58 1510 2315.58 1508.4 2299.58 1505.2C2284.38 1502.8 2270.38 1498.8 2257.58 1493.2V1376.8C2267.18 1379.2 2278.78 1381.2 2292.38 1382.8C2305.98 1385.2 2319.18 1386.4 2331.98 1386.4C2369.58 1386.4 2397.18 1378 2414.78 1361.2C2433.18 1345.2 2449.58 1320.4 2463.98 1286.8L2507.18 1188.4L2504.78 1302.4L2223.98 596.8H2369.18L2576.78 1138H2527.58L2733.98 596.8H2880.38L2593.58 1316.8C2578.38 1355.2 2559.18 1388.8 2535.98 1417.6C2513.58 1447.2 2486.78 1470 2455.58 1486C2425.18 1502 2389.18 1510 2347.58 1510ZM2973.18 1246V337.6H3108.78V1246H2973.18ZM3461.73 1260.4C3417.73 1260.4 3378.93 1252.8 3345.33 1237.6C3312.53 1221.6 3286.93 1200 3268.53 1172.8C3250.13 1144.8 3240.93 1112 3240.93 1074.4C3240.93 1039.2 3248.53 1007.6 3263.73 979.6C3279.73 951.6 3304.13 928 3336.93 908.8C3369.73 889.6 3410.93 876 3460.53 868L3686.13 830.8V937.6L3486.93 972.4C3450.93 978.8 3424.53 990.4 3407.73 1007.2C3390.93 1023.2 3382.53 1044 3382.53 1069.6C3382.53 1094.4 3391.73 1114.8 3410.13 1130.8C3429.33 1146 3453.73 1153.6 3483.33 1153.6C3520.13 1153.6 3552.13 1145.6 3579.33 1129.6C3607.33 1113.6 3628.93 1092.4 3644.13 1066C3659.33 1038.8 3666.93 1008.8 3666.93 976V809.2C3666.93 777.2 3654.93 751.2 3630.93 731.2C3607.73 710.4 3576.53 700 3537.33 700C3501.33 700 3469.73 709.6 3442.53 728.8C3416.13 747.2 3396.53 771.2 3383.73 800.8L3270.93 744.4C3282.93 712.4 3302.53 684.4 3329.73 660.4C3356.93 635.6 3388.53 616.4 3424.53 602.8C3461.33 589.2 3500.13 582.4 3540.92 582.4C3592.13 582.4 3637.33 592 3676.53 611.2C3716.53 630.4 3747.33 657.2 3768.93 691.6C3791.33 725.2 3802.53 764.4 3802.53 809.2V1246H3672.93V1128.4L3700.53 1132C3685.33 1158.4 3665.73 1181.2 3641.73 1200.4C3618.53 1219.6 3591.73 1234.4 3561.33 1244.8C3531.73 1255.2 3498.53 1260.4 3461.73 1260.4ZM3961.07 1246V596.8H4090.68V727.6L4078.68 708.4C4093.08 666 4116.28 635.6 4148.28 617.2C4180.28 598 4218.68 588.4 4263.48 588.4H4303.08V712H4246.68C4201.88 712 4165.48 726 4137.48 754C4110.28 781.2 4096.68 820.4 4096.68 871.6V1246H3961.07Z" fill="black"/>
</svg>
